<?xml version="1.0"?>
<svg version="1.1" xmlns="http://www.w3.org/2000/svg" width="169" height="44" style="border: dashed 2px #aaa"><path fill="#fff200" d="M16.19140625,12.44921875q0-0.390625,0.60546875-0.556640625t0.99609375-0.166015625q0.44921875,0,0.986328125,0.1171875t0.654296875,0.60546875q0.56640625,2.28515625,0.869140625,4.658203125t0.458984375,4.775390625t0.25390625,4.775390625t0.21484375,4.697265625q0.52734375-2.32421875,1.083984375-4.619140625t1.455078125-4.580078125l0-1.5625q0-0.99609375,0.693359375-1.435546875t1.865234375-0.439453125q0.1171875,0,0.537109375,0.05859375t0.419921875,0.390625q-0.078125,0.234375-0.185546875,0.44921875t-0.107421875,0.46875q0,2.96875,0.703125,6.083984375t1.38671875,6.064453125q0.390625-2.51953125,0.8984375-5.01953125t1.0546875-4.98046875q0.72265625-3.3203125,1.103515625-5.517578125t0.72265625-3.4765625t0.7421875-1.81640625t1.123046875-0.537109375q0.44921875-0.0390625,0.83984375,0.15625t0.3125,0.64453125q-1.40625,6.796875-2.626953125,13.6328125t-2.490234375,13.671875q0,0.390625,0.13671875,0.91796875t0.13671875,0.9375q0,0.234375-0.21484375,0.390625t-0.517578125,0.263671875t-0.6640625,0.146484375t-0.634765625,0.0390625q-0.60546875,0-1.26953125-0.185546875t-0.859375-1.064453125q-0.68359375-3.046875-1.259765625-6.123046875t-1.064453125-6.201171875q-0.15625,0.72265625-0.29296875,1.46484375t-0.25390625,1.50390625q-0.56640625,3.3203125-1.25,6.640625t-0.68359375,6.71875q0,0.83984375-0.3515625,1.083984375t-1.19140625,0.244140625q-0.64453125,0-1.09375-0.21484375q-0.3515625-0.1953125-0.6640625-0.3515625q-0.2734375-0.15625-0.498046875-0.361328125t-0.224609375-0.400390625q-0.3125-4.23828125-0.439453125-8.41796875t-0.283203125-8.41796875q-0.15625-3.80859375-0.458984375-7.607421875t-0.673828125-7.548828125z M39.9154296875,34.71484375q0-1.328125,0.361328125-2.55859375t1.083984375-2.197265625t1.806640625-1.54296875t2.509765625-0.576171875q0.87890625,0,1.943359375,0.263671875t2.001953125,0.78125t1.5625,1.318359375t0.625,1.8359375q0,0.48828125-0.166015625,0.7421875t-0.673828125,0.25390625l-0.21484375-0.0390625q0.56640625,1.5234375,0.9765625,3.125t0.80078125,3.203125q0.15625,0.3125,0.234375,0.556640625t0.078125,0.478515625q0,0.3125-0.17578125,0.517578125t-0.458984375,0.302734375t-0.5859375,0.13671875t-0.537109375,0.0390625q-0.83984375,0-1.259765625-0.29296875t-0.60546875-0.80078125t-0.224609375-1.142578125t-0.15625-1.279296875q-0.234375,0.76171875-0.615234375,1.484375t-0.8984375,1.298828125t-1.220703125,0.91796875t-1.58203125,0.341796875q-1.2890625,0-2.16796875-0.7421875t-1.416015625-1.826171875t-0.78125-2.314453125t-0.244140625-2.28515625z M42.6888671875,34.44140625q0,0.72265625,0.09765625,1.5234375t0.322265625,1.58203125t0.576171875,1.474609375t0.87890625,1.220703125q0.95703125-1.03515625,1.416015625-2.51953125t0.8203125-2.861328125t0.8203125-2.36328125t1.416015625-0.986328125q0.60546875,0,1.015625,0.21484375q-0.1953125-0.48828125-0.64453125-0.947265625t-1.005859375-0.83984375t-1.15234375-0.625t-1.123046875-0.244140625q-0.15625,0-0.361328125,0.048828125t-0.322265625,0.009765625q-0.80078125,0.234375-1.318359375,0.810546875t-0.83984375,1.357421875t-0.458984375,1.6015625t-0.13671875,1.54296875z M56.041796875,22.3125q0-0.2734375,0.5859375-0.46875t1.328125-0.322265625t1.435546875-0.185546875t0.947265625-0.09765625q0-0.52734375,0.0390625-1.064453125t0.21484375-0.95703125t0.556640625-0.673828125t1.064453125-0.25390625q0.56640625,0,0.859375,0.13671875t0.625,0.56640625q0.078125,0.234375,0.078125,0.44921875l0,0.654296875t-0.0390625,0.673828125q0.72265625-0.078125,1.435546875-0.185546875t1.435546875-0.107421875q0.52734375,0,0.72265625,0.01953125t0.390625,0.46875q0.15625,0.44921875-0.380859375,0.68359375t-1.2890625,0.3515625t-1.494140625,0.17578125t-0.8984375,0.05859375q-0.234375,3.359375-0.478515625,6.66015625t-0.244140625,6.69921875q0,1.5234375,0.09765625,3.14453125t0.546875,3.06640625q0.1171875,0.44921875,0.390625,0.83984375t0.2734375,0.83984375q0,0.2734375-0.21484375,0.4296875t-0.517578125,0.263671875t-0.60546875,0.126953125t-0.498046875,0.01953125q-1.23046875,0-1.875-0.91796875t-0.927734375-2.197265625t-0.302734375-2.626953125t-0.01953125-2.1875q0-1.71875,0.068359375-3.515625t0.166015625-3.5546875t0.2734375-3.4375t0.41015625-3.125q-0.68359375,0.078125-1.337890625,0.17578125t-1.337890625,0.09765625q-0.15625,0-0.419921875-0.01953125t-0.498046875-0.09765625t-0.400390625-0.21484375t-0.166015625-0.390625z M70.9767578125,34.32421875q0-1.40625,0.361328125-2.822265625t1.123046875-2.5390625t1.943359375-1.826171875t2.783203125-0.703125q0.68359375,0,1.50390625,0.166015625t1.513671875,0.52734375t1.171875,0.9375t0.478515625,1.416015625q0,0.52734375-0.2734375,0.703125t-0.72265625,0.17578125l-0.13671875-0.1953125t-0.380859375-0.498046875t-0.517578125-0.64453125t-0.52734375-0.576171875q-0.80078125-0.80078125-1.50390625-0.859375l-0.15625,0q-0.5859375,0-1.09375,0.3515625q-0.56640625,0.4296875-1.005859375,1.2109375t-0.732421875,1.66015625t-0.458984375,1.77734375t-0.166015625,1.484375q0,0.80078125,0.185546875,1.826171875t0.625,1.943359375t1.11328125,1.54296875t1.728515625,0.625q0.95703125,0,1.73828125-0.46875t1.494140625-1.044921875t1.396484375-1.03515625t1.40625-0.458984375q0.3125,0,0.634765625,0.078125t0.322265625,0.41015625l0,0.1171875q-0.3515625,0.91796875-1.19140625,1.62109375t-1.884765625,1.220703125t-2.16796875,0.771484375t-2.001953125,0.25390625q-1.640625,0-2.880859375-0.537109375t-2.060546875-1.474609375t-1.240234375-2.255859375t-0.419921875-2.880859375z M88.02109375,36.84375l0-1.8359375q0-0.99609375,0.048828125-2.822265625t0.126953125-4.00390625t0.21484375-4.541015625t0.3125-4.462890625t0.419921875-3.759765625t0.556640625-2.4609375q0.1953125-0.44921875,0.64453125-0.56640625t0.87890625-0.1171875q0.68359375,0,1.201171875,0.302734375t0.517578125,1.103515625l-0.3515625,0.390625q-0.68359375,4.51171875-0.87890625,9.0625t-0.2734375,9.1015625q0.48828125-0.76171875,1.103515625-1.494140625t1.3671875-1.298828125t1.62109375-0.908203125t1.904296875-0.341796875q1.328125,0,2.197265625,0.80078125t1.435546875,2.080078125t0.83984375,2.861328125t0.419921875,3.1640625t0.205078125,2.998046875t0.17578125,2.353515625q-0.37109375,0.5078125-1.09375,0.5078125l-0.05859375,0q-0.3125,0-0.68359375-0.078125t-0.48828125-0.390625l0.0390625,0.0390625q-0.2734375-0.60546875-0.37109375-1.748046875t-0.15625-2.51953125t-0.205078125-2.822265625t-0.439453125-2.6171875t-0.859375-1.93359375t-1.5234375-0.80078125l-0.1171875,0q-1.15234375,0-1.93359375,0.703125q-0.8203125,0.7421875-1.328125,1.953125t-0.78125,2.6953125t-0.419921875,2.861328125t-0.224609375,2.5t-0.1953125,1.650390625q-0.1171875,0.44921875-0.693359375,0.595703125t-0.986328125,0.146484375q-0.95703125,0-1.5625-0.546875q-0.44921875-1.07421875-0.52734375-2.67578125t-0.078125-3.125z M106.7060546875,34.24609375q0-1.796875,0.419921875-3.525390625t0.712890625-3.447265625q0.078125-0.44921875,0.615234375-0.556640625t0.908203125-0.107421875q0.64453125,0,1.03515625,0.1953125q0.15625,0.078125,0.29296875,0.17578125t0.13671875,0.25390625q0,1.6796875-0.400390625,3.28125t-0.400390625,3.3984375q0,0.60546875,0.087890625,1.142578125t0.166015625,1.064453125l0.1171875,0.56640625q0,0.15625,0.01953125,0.2734375t0.05859375,0.2734375q0,0.3515625-0.498046875,0.478515625t-0.869140625,0.126953125q-0.56640625,0-1.044921875-0.224609375t-0.751953125-0.771484375l-0.2734375-0.56640625q-0.234375-0.44921875-0.234375-1.005859375t-0.09765625-1.025390625z M107.9560546875,22.48828125l0-0.37109375q0-0.91796875,0.458984375-1.640625t1.376953125-0.72265625q0.1171875,0,0.224609375,0.01953125t0.224609375,0.01953125q0.234375,0.0390625,0.615234375,0.185546875t0.380859375,0.458984375l0,0.0390625q-0.078125,0.15625-0.09765625,0.322265625t-0.09765625,0.283203125l0.0390625-0.0390625q-0.234375,0.60546875-0.380859375,0.9765625t-0.322265625,0.595703125t-0.439453125,0.322265625t-0.751953125,0.09765625q-0.078125,0-0.2734375-0.01953125t-0.419921875-0.078125t-0.380859375-0.15625t-0.15625-0.29296875z M115.234765625,29.67578125q0-0.80078125,0.46875-1.376953125t1.142578125-0.9375t1.474609375-0.537109375t1.484375-0.17578125q0.52734375,0,1.40625,0.15625t1.71875,0.46875t1.455078125,0.8203125t0.615234375,1.19140625q0,0.3125-0.234375,0.556640625t-0.48828125,0.244140625q-0.52734375,0-0.95703125-0.341796875t-0.888671875-0.72265625t-1.005859375-0.72265625t-1.23046875-0.341796875t-1.240234375,0.439453125t-0.556640625,1.162109375q0,1.19140625,0.83984375,2.333984375t1.845703125,2.40234375t1.845703125,2.646484375t0.83984375,3.06640625q0,0.72265625-0.302734375,1.220703125t-0.80078125,0.810546875t-1.123046875,0.478515625t-1.2109375,0.166015625q-0.64453125,0-1.50390625-0.302734375t-1.62109375-0.80078125t-1.279296875-1.162109375t-0.517578125-1.38671875q0-0.3515625,0.498046875-0.44921875t0.732421875-0.09765625q0.1171875,0,0.361328125,0.078125t0.478515625,0.17578125t0.419921875,0.21484375t0.146484375,0.25390625q0.1953125,0.234375,0.595703125,0.693359375t0.80078125,0.7421875t0.703125,0.205078125t0.302734375-0.87890625q0-1.5234375-0.8203125-2.802734375t-1.787109375-2.5t-1.787109375-2.421875t-0.8203125-2.568359375z M128.1970703125,22.3125q0-0.2734375,0.5859375-0.46875t1.328125-0.322265625t1.435546875-0.185546875t0.947265625-0.09765625q0-0.52734375,0.0390625-1.064453125t0.21484375-0.95703125t0.556640625-0.673828125t1.064453125-0.25390625q0.56640625,0,0.859375,0.13671875t0.625,0.56640625q0.078125,0.234375,0.078125,0.44921875l0,0.654296875t-0.0390625,0.673828125q0.72265625-0.078125,1.435546875-0.185546875t1.435546875-0.107421875q0.52734375,0,0.72265625,0.01953125t0.390625,0.46875q0.15625,0.44921875-0.380859375,0.68359375t-1.2890625,0.3515625t-1.494140625,0.17578125t-0.8984375,0.05859375q-0.234375,3.359375-0.478515625,6.66015625t-0.244140625,6.69921875q0,1.5234375,0.09765625,3.14453125t0.546875,3.06640625q0.1171875,0.44921875,0.390625,0.83984375t0.2734375,0.83984375q0,0.2734375-0.21484375,0.4296875t-0.517578125,0.263671875t-0.60546875,0.126953125t-0.498046875,0.01953125q-1.23046875,0-1.875-0.91796875t-0.927734375-2.197265625t-0.302734375-2.626953125t-0.01953125-2.1875q0-1.71875,0.068359375-3.515625t0.166015625-3.5546875t0.2734375-3.4375t0.41015625-3.125q-0.68359375,0.078125-1.337890625,0.17578125t-1.337890625,0.09765625q-0.15625,0-0.419921875-0.01953125t-0.498046875-0.09765625t-0.400390625-0.21484375t-0.166015625-0.390625z M143.13203125,34.71484375q0-1.328125,0.361328125-2.55859375t1.083984375-2.197265625t1.806640625-1.54296875t2.509765625-0.576171875q0.87890625,0,1.943359375,0.263671875t2.001953125,0.78125t1.5625,1.318359375t0.625,1.8359375q0,0.48828125-0.166015625,0.7421875t-0.673828125,0.25390625l-0.21484375-0.0390625q0.56640625,1.5234375,0.9765625,3.125t0.80078125,3.203125q0.15625,0.3125,0.234375,0.556640625t0.078125,0.478515625q0,0.3125-0.17578125,0.517578125t-0.458984375,0.302734375t-0.5859375,0.13671875t-0.537109375,0.0390625q-0.83984375,0-1.259765625-0.29296875t-0.60546875-0.80078125t-0.224609375-1.142578125t-0.15625-1.279296875q-0.234375,0.76171875-0.615234375,1.484375t-0.8984375,1.298828125t-1.220703125,0.91796875t-1.58203125,0.341796875q-1.2890625,0-2.16796875-0.7421875t-1.416015625-1.826171875t-0.78125-2.314453125t-0.244140625-2.28515625z M145.90546875,34.44140625q0,0.72265625,0.09765625,1.5234375t0.322265625,1.58203125t0.576171875,1.474609375t0.87890625,1.220703125q0.95703125-1.03515625,1.416015625-2.51953125t0.8203125-2.861328125t0.8203125-2.36328125t1.416015625-0.986328125q0.60546875,0,1.015625,0.21484375q-0.1953125-0.48828125-0.64453125-0.947265625t-1.005859375-0.83984375t-1.15234375-0.625t-1.123046875-0.244140625q-0.15625,0-0.361328125,0.048828125t-0.322265625,0.009765625q-0.80078125,0.234375-1.318359375,0.810546875t-0.83984375,1.357421875t-0.458984375,1.6015625t-0.13671875,1.54296875z"/><path fill="white" d=""/></svg>